Coordinates
version=1
nRows=13
nColumns=26
inDegrees=yes

Units are S.I. units (second, meters, Newtons, ...)
Angles are in degrees.

endheader
time	pelvis_tilt	pelvis_list	pelvis_rotation	pelvis_tx	pelvis_ty	pelvis_tz	hip_flexion_r	hip_adduction_r	hip_rotation_r	knee_angle_r	knee_angle_r_beta	ankle_angle_r	subtalar_angle_r	mtp_angle_r	hip_flexion_l	hip_adduction_l	hip_rotation_l	knee_angle_l	knee_angle_l_beta	ankle_angle_l	subtalar_angle_l	mtp_angle_l	lumbar_extension	lumbar_bending	lumbar_rotation
     75.63316327	     -7.97087221	      1.98819999	     -4.90050006	      0.24851299	      0.83621014	      0.25250228	     28.90200657	      8.73209409	      7.60554480	     51.95755540	     51.95755540	     22.31457728	    -13.68307563	      0.00000000	     29.66040525	     -3.83155470	     -2.36112307	    107.78289468	    107.78289468	     -3.78145752	    -13.27906457	      0.00000000	    -10.22527694	     -0.54206226	     10.13429982
     75.64316327	     -7.56942632	      1.71899359	     -4.63704018	      0.24839499	      0.83664122	      0.25249612	     25.91468392	      8.77733134	      7.74714415	     51.45890946	     51.45890946	     23.46620221	    -13.66935559	      0.00000000	     32.06067466	     -4.17440074	     -1.50381290	    107.91975139	    107.91975139	     -2.49270697	    -13.16029620	      0.00000000	    -10.67039611	     -0.43518211	     10.79663970
     75.65316327	     -6.97355649	      1.69973453	     -4.23422429	      0.24882640	      0.83907131	      0.25195045	     22.34789086	      8.35363314	      7.74780010	     50.16213919	     50.16213919	     24.39097845	    -13.45989164	      0.00000000	     34.00003802	     -3.92234479	     -0.83562607	    107.14073901	    107.14073901	     -1.64914567	    -13.54123732	      0.00000000	    -11.22832274	     -0.60459572	     11.12206200
     75.66316327	     -6.54646759	      1.89460327	     -3.86820204	      0.24959657	      0.84279972	      0.25146229	     18.74426891	      7.67724993	      7.94605277	     48.32567159	     48.32567159	     24.43748563	    -12.93654581	      0.00000000	     35.85207228	     -3.40123570	     -0.50486074	    105.52478590	    105.52478590	     -1.30557552	    -14.28592038	      0.00000000	    -11.50396216	     -1.03533586	     11.62519133
     75.67316327	     -6.65790837	      2.37626474	     -3.44089483	      0.25052837	      0.84704072	      0.25087691	     15.62107088	      6.69904621	      8.09365716	     46.05399057	     46.05399057	     23.58266938	    -12.67448051	      0.00000000	     38.06168174	     -2.52995630	     -0.43193727	    103.21794364	    103.21794364	     -1.24367635	    -15.10969219	      0.00000000	    -11.04276735	     -1.74869995	     12.02506791
     75.68316327	     -6.86758779	      2.87231067	     -3.08871630	      0.25174080	      0.85241925	      0.25041975	     12.31791544	      5.72584033	      8.38985672	     43.03470489	     43.03470489	     21.81318775	    -12.53086856	      0.00000000	     40.00451551	     -1.66260765	     -0.62198902	    100.18309866	    100.18309866	     -1.55404418	    -16.18741441	      0.00000000	    -10.47422342	     -2.52215894	     12.25481954
     75.69316327	     -7.46041017	      3.61518840	     -2.60950856	      0.25360375	      0.85787959	      0.25005527	      9.38157746	      4.47220773	      8.55840981	     39.79335283	     39.79335283	     19.42394994	    -12.38989836	      0.00000000	     41.98889920	     -0.47411730	     -0.91285303	     96.56155445	     96.56155445	     -1.55804308	    -16.69378064	      0.00000000	     -9.33437957	     -3.57310961	     12.65639533
     75.70316327	     -7.85903929	      4.19895269	     -2.23377590	      0.25604374	      0.86428926	      0.25001152	      6.15081887	      3.39989449	      8.69492375	     36.17341027	     36.17341027	     15.89740209	    -12.42369157	      0.00000000	     43.28424686	      0.49861202	     -1.23791646	     92.29189881	     92.29189881	     -1.20319644	    -16.88333010	      0.00000000	     -8.42051627	     -4.44873129	     13.33161409
     75.71316327	     -8.43836312	      4.72917532	     -1.87714499	      0.25870441	      0.87069321	      0.24986025	      3.29173969	      2.37104480	      8.54663910	     32.59252171	     32.59252171	     11.62113258	    -12.43816017	      0.00000000	     44.41539874	      1.45870284	     -1.52580033	     87.57433489	     87.57433489	     -0.47340640	    -16.37767463	      0.00000000	     -7.22550121	     -5.30644948	     13.76415132
     75.72316327	     -9.07519322	      5.40303617	     -1.59170294	      0.26132992	      0.87707428	      0.24941654	      0.89560464	      1.06982646	      7.83008487	     29.49337674	     29.49337674	      7.19307515	    -11.39389404	      0.00000000	     45.22621896	      2.59053743	     -1.93276561	     82.27732605	     82.27732605	      0.16954670	    -15.74607360	      0.00000000	     -5.99068638	     -6.25834204	     14.30691163
     75.73316327	     -9.70082717	      6.04071461	     -1.10066210	      0.26472295	      0.88327344	      0.24871516	     -1.44812237	     -0.20044569	      6.55096080	     26.40010485	     26.40010485	      2.18493918	    -10.19630202	      0.00000000	     45.63555369	      3.85035952	     -2.15012134	     76.46714280	     76.46714280	      0.44597598	    -15.21002277	      0.00000000	     -4.74989128	     -7.11047505	     14.92351275
     75.74316327	    -10.21102258	      6.55402934	     -0.89117752	      0.26788744	      0.88943486	      0.24821205	     -3.64184754	     -1.31098842	      5.31964115	     23.48035396	     23.48035396	     -3.35855929	     -8.83953763	      0.00000000	     45.57939705	      4.83963253	     -2.44755528	     70.20325108	     70.20325108	      0.55129450	    -14.73593401	      0.00000000	     -3.75873610	     -7.61491626	     16.26233782
     75.75316327	    -10.68256899	      6.99863835	     -0.89389075	      0.27092155	      0.89539011	      0.24799970	     -5.59793166	     -2.30670515	      4.24366077	     20.82596337	     20.82596337	     -9.03304275	     -7.50439570	      0.00000000	     45.13088177	      5.66590172	     -2.69287552	     63.47200300	     63.47200300	      0.55141531	    -14.00733653	      0.00000000	     -2.66841127	     -8.38074920	     16.91889893
